<svg width="390" height="844" viewBox="0 0 390 844" fill="none" xmlns="http://www.w3.org/2000/svg">
<g clip-path="url(#clip0_195_17)">
<path d="M0 0H390V683H0V0Z" fill="#3C4757"/>
<path d="M0 93C0 79.1929 11.1929 68 25 68H365C378.807 68 390 79.1929 390 93V844H0V93Z" fill="#FB923C"/>
<path d="M0 169C0 155.193 11.1929 144 25 144H365C378.807 144 390 155.193 390 169V844H0V169Z" fill="#FDE68A"/>
<path d="M0 255C0 241.193 11.1929 230 25 230H365C378.807 230 390 241.193 390 255V844H0V255Z" fill="#3C4757"/>
</g>
<defs>
<clipPath id="clip0_195_17">
<rect width="390" height="844" fill="white"/>
</clipPath>
</defs>
</svg>
